<?xml version="1.0" standalone="no"?>
<!DOCTYPE svg PUBLIC "-//W3C//DTD SVG 20010904//EN"
 "http://www.w3.org/TR/2001/REC-SVG-20010904/DTD/svg10.dtd">
<svg version="1.0" xmlns="http://www.w3.org/2000/svg"
 width="550.000000pt" height="499.000000pt" viewBox="0 0 550.000000 499.000000"
 preserveAspectRatio="xMidYMid meet">

<g transform="translate(0.000000,499.000000) scale(0.100000,-0.100000)"
fill="#000000" stroke="none">
<path d="M421 4951 c8 -10 33 -43 55 -73 104 -136 157 -288 234 -668 12 -58
64 -314 116 -570 52 -256 113 -553 134 -660 22 -107 66 -328 100 -490 33 -162
87 -428 120 -590 135 -668 298 -1468 353 -1735 l23 -110 357 -3 356 -2 10 37
c6 21 103 409 216 863 113 454 224 895 246 980 23 85 72 275 110 421 37 147
74 282 82 300 l14 34 22 -71 c20 -68 139 -540 482 -1924 83 -333 153 -613 155
-622 5 -17 31 -18 362 -18 l357 0 57 283 c32 155 89 437 128 627 39 190 81
399 95 465 13 66 69 343 125 615 56 272 130 637 165 810 35 173 94 461 130
640 36 179 72 357 80 395 60 302 119 575 141 655 35 128 120 302 178 367 25
28 46 54 46 57 0 3 -261 6 -579 6 l-579 0 30 -97 c55 -180 49 -336 -27 -768
-19 -110 -57 -330 -85 -490 -49 -287 -75 -440 -104 -605 -40 -227 -78 -450
-86 -500 -15 -97 -90 -513 -101 -562 -6 -27 -14 -48 -19 -48 -7 0 -60 169
-144 460 -25 85 -67 229 -95 320 -102 339 -290 1008 -305 1087 -35 185 -30
329 15 460 10 31 19 60 19 65 0 4 -211 8 -470 8 -258 0 -470 -3 -470 -7 0 -5
12 -44 26 -88 53 -167 42 -343 -41 -643 -76 -279 -434 -1518 -462 -1601 -32
-96 -35 -88 -92 244 -22 127 -58 329 -80 450 -22 121 -54 299 -70 395 -17 96
-46 270 -66 385 -74 426 -137 793 -157 915 -14 85 -21 171 -21 270 0 128 3
155 26 230 14 47 29 93 32 103 7 16 -25 17 -575 17 -567 0 -582 0 -569 -19z"/>
</g>
</svg>
